<?xml version="1.0" standalone="no"?>
<!DOCTYPE svg PUBLIC "-//W3C//DTD SVG 20010904//EN"
 "http://www.w3.org/TR/2001/REC-SVG-20010904/DTD/svg10.dtd">
<svg version="1.0" xmlns="http://www.w3.org/2000/svg"
 width="200.000000pt" height="200.000000pt" viewBox="0 0 200.000000 200.000000"
 preserveAspectRatio="xMidYMid meet">

<g transform="translate(0.000000,200.000000) scale(0.100000,-0.100000)"
fill="#000000" stroke="none">
<path d="M757 1314 c-13 -13 5 -24 38 -24 l34 0 32 -100 33 -100 -22 -20 c-12
-12 -22 -27 -22 -34 0 -32 27 -37 189 -34 215 4 216 22 1 26 -88 1 -160 5
-160 9 0 23 43 32 153 33 l118 0 13 33 c8 17 21 56 29 84 l16 53 -36 34 -36
34 -38 -25 c-20 -13 -47 -23 -60 -22 -55 5 -139 -2 -139 -11 0 -5 21 -10 46
-10 50 0 56 -16 13 -37 -14 -8 -18 -13 -9 -13 11 -1 8 -6 -9 -20 -13 -11 -27
-20 -31 -20 -4 0 -18 31 -29 69 -12 39 -28 77 -37 85 -15 16 -75 22 -87 10z
m423 -78 c0 -2 -3 -12 -6 -20 -5 -13 -9 -14 -20 -5 -20 16 -17 29 6 29 11 0
20 -2 20 -4z"/>
<path d="M900 965 c-11 -13 -11 -19 3 -33 20 -19 41 -5 35 24 -4 24 -22 28
-38 9z"/>
<path d="M1104 966 c-7 -18 1 -46 13 -46 4 0 15 5 23 10 11 7 12 14 4 27 -15
24 -33 28 -40 9z"/>
<path d="M340 775 c0 -69 3 -85 15 -85 12 0 15 16 15 85 0 69 -3 85 -15 85
-12 0 -15 -16 -15 -85z"/>
<path d="M210 790 c-51 -51 5 -127 74 -101 39 15 33 35 -8 27 -24 -5 -37 -2
-47 10 -18 22 1 49 37 50 45 2 47 3 34 19 -18 21 -66 19 -90 -5z"/>
<path d="M422 794 c-47 -33 -19 -108 41 -108 46 0 67 19 67 59 0 57 -58 84
-108 49z m73 -43 c0 -34 -30 -51 -51 -29 -25 24 -10 60 24 56 21 -2 27 -8 27
-27z"/>
<path d="M560 748 c0 -45 3 -58 15 -58 10 0 15 10 15 28 0 37 22 67 44 59 11
-4 16 -19 16 -47 0 -34 3 -40 21 -40 20 0 21 4 17 51 -3 28 -11 55 -19 59 -7
5 -35 8 -61 8 l-48 -1 0 -59z"/>
<path d="M736 791 c-27 -29 -18 -83 16 -99 30 -14 81 -6 75 12 -3 6 -10 10
-18 8 -20 -5 -59 7 -59 18 0 6 22 10 50 10 l50 0 -11 27 c-6 15 -16 31 -22 35
-22 14 -64 8 -81 -11z m58 -7 c27 -10 18 -24 -15 -24 -27 0 -30 2 -19 15 14
17 13 17 34 9z"/>
<path d="M877 803 c-15 -15 -5 -23 28 -23 19 0 35 -4 35 -10 0 -5 -9 -10 -21
-10 -31 0 -59 -19 -59 -40 0 -27 29 -40 78 -33 42 6 42 6 42 49 0 25 -6 49
-16 58 -15 16 -75 22 -87 9z m63 -78 c0 -16 -35 -21 -44 -6 -8 12 4 21 26 21
10 0 18 -7 18 -15z"/>
<path d="M1010 749 c0 -52 2 -59 19 -59 16 0 20 8 23 43 2 34 7 42 23 42 16 0
21 -8 23 -42 3 -34 7 -43 22 -43 15 0 19 9 22 43 2 34 7 42 23 42 16 0 21 -8
23 -42 2 -30 8 -43 18 -43 12 0 14 11 12 51 -4 63 -22 79 -68 62 -16 -6 -32
-7 -35 -3 -3 5 -28 9 -55 8 l-50 0 0 -59z"/>
<path d="M1267 803 c-15 -15 -5 -23 28 -23 45 0 45 -16 1 -24 -35 -7 -50 -25
-40 -50 8 -21 26 -25 73 -19 41 6 41 6 41 49 0 25 -6 49 -16 58 -15 16 -75 22
-87 9z m68 -78 c0 -5 -10 -11 -22 -13 -16 -2 -23 2 -23 13 0 11 7 15 23 13 12
-2 22 -7 22 -13z"/>
<path d="M1400 795 c0 -9 9 -15 25 -15 14 0 25 -4 25 -8 0 -5 -11 -19 -25 -32
-40 -38 -33 -50 30 -50 30 0 55 5 55 10 0 6 -16 10 -36 10 l-35 0 30 37 c44
53 41 63 -19 63 -38 0 -50 -4 -50 -15z"/>
<path d="M1540 790 c-11 -11 -20 -29 -20 -40 0 -27 43 -70 70 -70 27 0 70 43
70 70 0 29 -35 60 -70 60 -17 0 -39 -9 -50 -20z m75 -45 c0 -25 -4 -30 -25
-30 -16 0 -26 6 -28 18 -6 30 6 49 30 45 18 -2 23 -9 23 -33z"/>
<path d="M1680 749 c0 -52 2 -59 19 -59 16 0 20 8 23 43 3 37 6 42 28 42 22 0
25 -5 28 -42 2 -29 8 -43 18 -43 18 0 20 93 1 108 -7 6 -36 11 -65 10 l-52 0
0 -59z"/>
</g>
</svg>
